HIERARCHY
ROOT Hips
{
	OFFSET -14.64140 90.27770 -84.91600
	CHANNELS 6 Xposition Yposition Zposition Zrotation Xrotation Yrotation
	JOINT Spine
	{
		OFFSET 0.00000 13.20850 -1.60436
		CHANNELS 3 Zrotation Xrotation Yrotation
		JOINT Spine1
		{
			OFFSET 0.00000 8.61716 0.00000
			CHANNELS 3 Zrotation Xrotation Yrotation
			JOINT Spine2
			{
				OFFSET 0.00000 8.61717 0.00000
				CHANNELS 3 Zrotation Xrotation Yrotation
				JOINT Spine3
				{
					OFFSET 0.00000 8.61717 0.00000
					CHANNELS 3 Zrotation Xrotation Yrotation
					JOINT Neck
					{
						OFFSET 0.00000 11.07920 1.10792
						CHANNELS 3 Zrotation Xrotation Yrotation
						JOINT Neck1
						{
							OFFSET 0.00000 7.08032 0.00000
							CHANNELS 3 Zrotation Xrotation Yrotation
							JOINT Head
							{
								OFFSET 0.00000 7.08031 0.00000
								CHANNELS 3 Zrotation Xrotation Yrotation
								End site
								{
									OFFSET 0.00000 0.00000 0.00000
								}
							}
						}
					}
					JOINT RightShoulder
					{
						OFFSET -0.01000 7.91373 5.19711
						CHANNELS 3 Zrotation Xrotation Yrotation
						JOINT RightArm
						{
							OFFSET -18.41580 0.00000 0.00000
							CHANNELS 3 Zrotation Xrotation Yrotation
							JOINT RightForeArm
							{
								OFFSET -29.11090 0.00000 0.00000
								CHANNELS 3 Zrotation Xrotation Yrotation
								JOINT RightHand
								{
									OFFSET -24.65040 0.00000 0.00000
									CHANNELS 3 Zrotation Xrotation Yrotation
									JOINT RightHandThumb1
									{
										OFFSET -5.35114 -0.85590 3.97906
										CHANNELS 3 Zrotation Xrotation Yrotation
										JOINT RightHandThumb2
										{
											OFFSET -4.52789 0.00000 0.00000
											CHANNELS 3 Zrotation Xrotation Yrotation
											JOINT RightHandThumb3
											{
												OFFSET -2.46976 0.00000 0.00000
												CHANNELS 3 Zrotation Xrotation Yrotation
												End site
												{
													OFFSET 0.00000 0.00000 0.00000
												}
											}
										}
									}
									JOINT RightHandIndex1
									{
										OFFSET -14.26970 0.00000 2.88139
										CHANNELS 3 Zrotation Xrotation Yrotation
										JOINT RightHandIndex2
										{
											OFFSET -5.48836 0.00000 0.00000
											CHANNELS 3 Zrotation Xrotation Yrotation
											JOINT RightHandIndex3
											{
												OFFSET -3.01859 0.00000 0.00000
												CHANNELS 3 Zrotation Xrotation Yrotation
												End site
												{
													OFFSET 0.00000 0.00000 0.00000
												}
											}
										}
									}
									JOINT RightHandMiddle1
									{
										OFFSET -14.26970 0.00000 -0.09147
										CHANNELS 3 Zrotation Xrotation Yrotation
										JOINT RightHandMiddle2
										{
											OFFSET -6.17441 0.00000 0.00000
											CHANNELS 3 Zrotation Xrotation Yrotation
											JOINT RightHandMiddle3
											{
												OFFSET -3.56743 0.00000 0.00000
												CHANNELS 3 Zrotation Xrotation Yrotation
												End site
												{
													OFFSET 0.00000 0.00000 0.00000
												}
											}
										}
									}
									JOINT RightHandRing1
									{
										OFFSET -12.69180 0.00000 -3.06433
										CHANNELS 3 Zrotation Xrotation Yrotation
										JOINT RightHandRing2
										{
											OFFSET -5.62556 0.00000 0.00000
											CHANNELS 3 Zrotation Xrotation Yrotation
											JOINT RightHandRing3
											{
												OFFSET -3.56744 0.00000 0.00000
												CHANNELS 3 Zrotation Xrotation Yrotation
												End site
												{
													OFFSET 0.00000 0.00000 0.00000
												}
											}
										}
									}
									JOINT RightHandPinky1
									{
										OFFSET -11.11390 0.00000 -6.03719
										CHANNELS 3 Zrotation Xrotation Yrotation
										JOINT RightHandPinky2
										{
											OFFSET -4.52789 0.00000 0.00000
											CHANNELS 3 Zrotation Xrotation Yrotation
											JOINT RightHandPinky3
											{
												OFFSET -2.46976 0.00000 0.00000
												CHANNELS 3 Zrotation Xrotation Yrotation
												End site
												{
													OFFSET 0.00000 0.00000 0.00000
												}
											}
										}
									}
								}
							}
						}
					}
					JOINT LeftShoulder
					{
						OFFSET 0.01000 7.91373 5.19711
						CHANNELS 3 Zrotation Xrotation Yrotation
						JOINT LeftArm
						{
							OFFSET 18.41580 0.00000 0.00000
							CHANNELS 3 Zrotation Xrotation Yrotation
							JOINT LeftForeArm
							{
								OFFSET 29.11090 0.00000 0.00000
								CHANNELS 3 Zrotation Xrotation Yrotation
								JOINT LeftHand
								{
									OFFSET 24.65040 0.00000 0.00000
									CHANNELS 3 Zrotation Xrotation Yrotation
									JOINT LeftHandThumb1
									{
										OFFSET 5.35114 -0.85590 3.97906
										CHANNELS 3 Zrotation Xrotation Yrotation
										JOINT LeftHandThumb2
										{
											OFFSET 4.52789 0.00000 0.00000
											CHANNELS 3 Zrotation Xrotation Yrotation
											JOINT LeftHandThumb3
											{
												OFFSET 2.46977 0.00000 0.00000
												CHANNELS 3 Zrotation Xrotation Yrotation
												End site
												{
													OFFSET 0.00000 0.00000 0.00000
												}
											}
										}
									}
									JOINT LeftHandIndex1
									{
										OFFSET 14.26970 0.00000 2.88139
										CHANNELS 3 Zrotation Xrotation Yrotation
										JOINT LeftHandIndex2
										{
											OFFSET 5.48836 0.00000 0.00000
											CHANNELS 3 Zrotation Xrotation Yrotation
											JOINT LeftHandIndex3
											{
												OFFSET 3.01859 0.00000 0.00000
												CHANNELS 3 Zrotation Xrotation Yrotation
												End site
												{
													OFFSET 0.00000 0.00000 0.00000
												}
											}
										}
									}
									JOINT LeftHandMiddle1
									{
										OFFSET 14.26970 0.00000 -0.09147
										CHANNELS 3 Zrotation Xrotation Yrotation
										JOINT LeftHandMiddle2
										{
											OFFSET 6.17440 0.00000 0.00000
											CHANNELS 3 Zrotation Xrotation Yrotation
											JOINT LeftHandMiddle3
											{
												OFFSET 3.56744 0.00000 0.00000
												CHANNELS 3 Zrotation Xrotation Yrotation
												End site
												{
													OFFSET 0.00000 0.00000 0.00000
												}
											}
										}
									}
									JOINT LeftHandRing1
									{
										OFFSET 12.69180 0.00000 -3.06433
										CHANNELS 3 Zrotation Xrotation Yrotation
										JOINT LeftHandRing2
										{
											OFFSET 5.62556 0.00000 0.00000
											CHANNELS 3 Zrotation Xrotation Yrotation
											JOINT LeftHandRing3
											{
												OFFSET 3.56744 0.00000 0.00000
												CHANNELS 3 Zrotation Xrotation Yrotation
												End site
												{
													OFFSET 0.00000 0.00000 0.00000
												}
											}
										}
									}
									JOINT LeftHandPinky1
									{
										OFFSET 11.11390 0.00000 -6.03719
										CHANNELS 3 Zrotation Xrotation Yrotation
										JOINT LeftHandPinky2
										{
											OFFSET 4.52789 0.00000 0.00000
											CHANNELS 3 Zrotation Xrotation Yrotation
											JOINT LeftHandPinky3
											{
												OFFSET 2.46976 0.00000 0.00000
												CHANNELS 3 Zrotation Xrotation Yrotation
												End site
												{
													OFFSET 0.00000 0.00000 0.00000
												}
											}
										}
									}
								}
							}
						}
					}
					JOINT pCube4
					{
						OFFSET 0.00000 10.91090 1.10792
						CHANNELS 3 Zrotation Xrotation Yrotation
						End site
						{
							OFFSET 0.00000 0.00000 0.00000
						}
					}
				}
			}
		}
	}
	JOINT RightUpLeg
	{
		OFFSET -9.98441 0.00000 0.00000
		CHANNELS 3 Zrotation Xrotation Yrotation
		JOINT RightLeg
		{
			OFFSET 0.00000 -42.11790 0.00000
			CHANNELS 3 Zrotation Xrotation Yrotation
			JOINT RightFoot
			{
				OFFSET 0.00000 -45.00020 -0.00001
				CHANNELS 3 Zrotation Xrotation Yrotation
				JOINT RightForeFoot
				{
					OFFSET 0.00000 -3.74820 0.00000
					CHANNELS 3 Zrotation Xrotation Yrotation
					JOINT RightToeBase
					{
						OFFSET 0.00000 0.06325 14.43120
						CHANNELS 3 Zrotation Xrotation Yrotation
						End site
						{
							OFFSET 0.00000 0.00000 0.00000
						}
					}
				}
			}
		}
	}
	JOINT LeftUpLeg
	{
		OFFSET 9.98441 0.00000 0.00000
		CHANNELS 3 Zrotation Xrotation Yrotation
		JOINT LeftLeg
		{
			OFFSET 0.00000 -42.11800 0.00000
			CHANNELS 3 Zrotation Xrotation Yrotation
			JOINT LeftFoot
			{
				OFFSET 0.00000 -45.00070 0.00000
				CHANNELS 3 Zrotation Xrotation Yrotation
				JOINT LeftForeFoot
				{
					OFFSET 0.00000 -3.74824 0.00000
					CHANNELS 3 Zrotation Xrotation Yrotation
					JOINT LeftToeBase
					{
						OFFSET 0.00000 0.06325 14.43110
						CHANNELS 3 Zrotation Xrotation Yrotation
						End site
						{
							OFFSET 0.00000 0.00000 0.00000
						}
					}
				}
			}
		}
	}
}
MOTION
Frames: 4
Frame Time: 0.050000
0.012261954511733323 -0.04660227303453305 0.00024378068923165878 0.01899710157072395 0.040808530067348574 0.022464886087901453 3.25249659387717 2.3792634818369987 -1.8829856124901219 -0.5628388835929843 3.6883216159044956 0.383137926129228 -0.6297347757170292 -1.5784721514220348 1.123748520730021 -0.5728086355953714 -0.4042487600306233 -0.3290193837074339 0.10530421916887733 13.45828823594533 -1.6483847391077044 0.42697993817463165 -0.026155416889131887 -4.201327146577868 0.9908273146162512 -15.894882630053793 -0.370168755660618 -7.816549343565035 2.871127043098224 -16.48965680369538 76.1660082291696 15.287780645079298 10.543658366200274 1.5083742779764624 0.780047964938896 89.48907377725838 21.216275831970876 -0.5639339681552374 -4.426989626780166 4.517487157007973 -0.13184981713171925 -1.6186424716206504 -0.04255274266374343 0.04147056207605501 -56.19840119526269 -0.024918432688878667 0.010260079557526202 -56.205930298337265 -38.81631077104297 0.027313572586788976 0.02217250771081055 -0.013049299041125404 0.0062511504645951285 0.00392103602112797 0.034024887895237776 0.022616599770763125 0.04930133514895203 -36.673295247558805 0.012757500991606514 0.006334328956450461 -0.01294936494009322 -0.01462016802116934 0.019799399285059145 0.017330533422296263 0.009342445132251269 0.016151026211522167 -19.743394711913087 -0.030157392178441773 -0.018661150173960226 0.005482745256758249 0.04470559422365591 0.011034338869906079 0.0161426472012819 0.022237824760387423 0.015495216640835802 24.026778595445162 -0.026173590907111143 0.005777175736780917 28.850411652049797 0.04091507389648383 0.010675439486717245 28.89394662621875 -0.015029663973797876 -0.0030733430097316518 8.602757734502816 2.1138890869339315 14.6647683190204 -74.55938754095443 24.727043002518815 -11.391269057376766 -16.641257023794314 3.296580869466625 -83.90951096978075 -23.382508299883106 -2.737619235563095 1.6143180499057923 -0.48215400378227363 0.08326089376191152 -8.159798632982673 -0.02627504980198152 -0.018071323170920542 44.52324532727193 -0.014695400288632594 0.029741175280673417 44.56867635109777 12.487670495869327 -0.006746582402763037 -0.001289412085766395 0.049261760554953925 -0.023639921668842944 -0.023866992119169726 0.01720385937316086 0.01549809042490561 -0.036746406629130965 11.110221913749742 0.017125762882188793 0.006287829882428432 0.01855704789635358 0.0016645578788763884 -0.0012752699102649004 0.01117009453070024 -0.019909301872162 0.03080999174562394 4.751506662710866 0.003096394760601976 0.04939698248382852 0.04849540298044173 -0.014896123547900814 -0.014847095632150574 0.01667859500995401 -0.0399380721988255 -0.012735173376530051 -5.6420264942515805 0.00495008626185958 0.029669153750456558 -6.738705750506882 0.004004595649231537 -0.022935439175131387 -6.718294176756719 -0.020502449366033078 -0.030761078996043422 -0.006067316609078912 0.04962372857297246 -0.0010598193614317596 8.010217540327664 3.5239163362283854 -19.196351995686182 0.006310484510317128 10.44026500601985 -0.011123862029926535 -5.611783515133649 -15.65259887078605 3.1922136770468597 -0.0018870766548859759 -0.013601459988812861 -0.041152774753982525 -0.0021164733112941617 4.658943527810116 -0.043571493339366586 12.424496853777368 -8.245510576021475 6.871160392460619 0.013426364190887824 46.39685854419895 -0.028803436146764193 -4.3115079371616485 -14.777699286035416 -3.848432587222115 -0.022411584458352642 0.04487058864283781 -0.022721816797594087 0.014421877103909159 -10.72305869982106 0.025465846703971097 
0.0030259876760395763 -0.04988664776745307 0.02821906147084316 -0.010861754342619772 0.007859408575109464 -0.01101778276517141 3.689371679899723 2.4072862535694863 -1.9074767950717346 -0.5718335145516652 3.6257710938270424 0.3637408609444719 -0.6359816789167088 -1.528907191254016 0.9776304211335087 -0.46980715906656645 -0.33195860705528973 -0.3090395413024573 0.05278205527484052 13.693765825265903 -1.5601731056504495 0.3487922746350366 0.16207495681398465 -3.8261278854982885 0.897038920575416 -15.753541697239909 -0.3431344813794288 -8.379519797468 2.9543795599818914 -16.786532073221988 76.78058863880433 17.075820716095535 9.579511537480494 -0.6085329682713817 0.3311286618085947 87.72997940441769 21.15518705429375 -0.5409503513149427 -4.651829346048781 4.532308064065617 -0.1469671401097024 -1.6421708787224298 0.030264574660536798 -0.03486840070543613 -56.21774655270072 0.007852794961410992 0.0037407733584549135 -56.20966212682992 -38.73704180919546 0.04052226014783425 -0.037381364811058186 -0.026409309207491686 0.002031223024973922 0.023024747985941126 -0.012549129060862444 0.004654851385751019 -0.023452130733836306 -36.68434408614483 -0.00955095954413167 0.016749821465980606 0.0020456945713154032 -0.010556040960977986 -0.04512524612105962 0.0477109240439045 -0.023363990785734565 -0.006983960911064261 -19.726566242739324 -0.03606284893571969 0.049973046253591585 -0.03232338194469406 0.03453246361249103 0.0031499922857790687 0.001403030251136597 -0.002577106874179439 0.003479715782476386 24.04998911306139 -0.02735277186053181 -0.030461311052097123 28.833782815656726 0.0003679788687767575 0.0006618311694893419 28.87586551242845 0.015099460898961805 -0.04907718925193441 9.179339450622422 2.2056651466354467 14.776854395660589 -74.31476615032615 25.673998899422514 -11.702171422956269 -15.501368315537677 2.630959793352576 -83.33329981923325 -23.23242551657016 -3.7128098936804914 2.3263481552502627 -0.49506301114107626 0.11503763278156842 -8.158382040693928 -0.000659282760119506 0.006874594186086545 44.56121914836549 0.024596751093468178 0.0029233088547217997 44.523822342300484 12.469640605378435 0.043884142960626774 0.016051412306425046 -0.025007332712870405 -0.038516132196138475 -0.020670364310156116 0.003923717128048144 -0.00982320293049965 0.04854875006554901 11.102325740320316 0.02802707537408053 -0.04491293641185012 0.049082965843352 -0.0211586371111779 -0.024231401964282764 0.023515506355308288 -0.03411043604187728 -0.029516040804141698 4.783008043883505 0.006573849452873322 -0.011664256080402594 -0.0372616454707602 0.009545846635255748 0.0013715416037004692 0.018938730046835012 -0.004441123175762631 0.0413278519142 -5.597931519988064 0.0316497918335923 -0.023614344032111725 -6.684750928950984 0.023608910898264977 0.010923772771221656 -6.696881709171582 -0.021429961229860343 0.016412271276753477 -0.01970990464514667 -0.012452995039842686 -0.014517530112379953 8.06360721987622 3.498523224662056 -19.239166801219586 0.020059977841416693 10.362296740236802 0.025650775962178254 -5.632277469627844 -15.704007088300049 3.144387009259257 -0.04565459924873002 0.0047947987306835305 -0.0045812305690818575 0.02369322117084917 4.676519777774517 0.02825205621569144 12.506309727807228 -8.19860920078472 6.914065631719481 -0.023113275451163956 46.39377334299316 -0.018790390444791236 -4.308938558775958 -14.742536615461916 -3.788060680199552 0.028843946545600338 0.02209256092716318 0.006361782928793428 -0.03257085392280671 -10.79492735345467 -0.018066874094989686 
-0.004123616484818896 -0.006984807398429567 0.0008380250250530131 0.035162016498993705 0.009192864122374906 -0.015429839405072324 4.074383417904067 2.374717182145532 -1.984613947162324 -0.6586814546657184 3.6365755435712734 0.3152169853769027 -0.6498296996474581 -1.522860172493155 0.9651283075870717 -0.4412404966282334 -0.23508300216427358 -0.27585425633413974 0.07290688015018612 13.903146429523066 -1.3733988231593388 0.31257202649916205 0.3646790455215495 -3.287822361823274 0.8491732521045952 -15.533688188937685 -0.29248842837900857 -8.696660957577976 3.106306194080933 -17.023005665566494 77.26777050312563 18.741716957784405 8.989625497468548 -2.0524658608056683 0.10175330360706977 86.58793749404228 21.0893752252141 -0.5831787564509459 -4.856999612455533 4.502530760064658 -0.10322434507425655 -1.5910105201165554 0.00041720111610980327 -0.007185187047817215 -56.24386852698357 -0.030715217599748146 0.014153216906005437 -56.22505231100249 -38.75484769582167 0.012242806800367935 0.006299848907568692 0.03038165949076822 -0.03299987742149517 0.03161868786017388 -0.010470275391746688 0.006376700804552148 0.011379236258690792 -36.66413613849565 -0.045431489452541274 -0.02556909139756743 -0.005896608776109732 -0.00943593292608525 -0.03588871988115081 0.0049989445979895545 0.019883378390798245 -0.008843679049875462 -19.710477547096854 -0.027941018218006482 -0.02978466654394131 0.021579462482718848 0.006021245468935087 0.025629722621979822 0.00742377760462688 0.007420167246233305 -0.033042183214480846 24.08634878630393 -0.018555727018428225 0.014220980006474974 28.82578026219878 0.004538789894424626 0.024866196677858044 28.83898568287608 0.024085691604979524 0.04302279455665939 9.711835186090008 2.3115026185596736 14.88286577366585 -74.12568800236994 26.52105250275449 -12.20719866215198 -14.808418117802356 2.4848805819871687 -83.21863901260778 -23.448672623818627 -4.827544779959945 3.138736869657216 -0.4993645800088935 0.05785761439575046 -8.164296979061634 -0.02182214932815935 -0.04580835758905384 44.536824189181615 0.0019392391150485485 -0.03942757144474096 44.54710360106521 12.467337887142197 0.004665010222048709 0.006936074695701528 -0.013362916030712732 -0.019174771462530053 -0.01239542517167155 0.01279306463453806 -0.02721636857406662 0.007069461951120585 11.132254801024427 -0.0489363894759854 0.005016101995717918 -0.03848235758430753 -0.0027182841531156895 -0.019801759587620604 -0.0013606523244486459 0.0010565833388629408 -0.010416633247117429 4.767036689754029 0.012215812071873128 0.020645783128751986 -0.032980244328430004 0.03150614521570002 0.00327684090863033 0.016147984634303704 0.04484460793908068 0.012229396717691304 -5.567857755617729 -0.012362609511369851 0.03559534914214766 -6.6963213602670635 0.013347981120269015 -0.02160109010860889 -6.700627177921208 -0.0341179733136924 -0.04445635649728121 0.04610157067882606 -0.02916747675919731 0.02672213174006077 8.09318356862112 3.5408515445407085 -19.241484629663688 -0.047064223131584614 10.432158553912425 -0.00891986669041336 -5.651409030883724 -15.650270786181906 3.1831473757430513 -0.04104682982609681 0.025203756290885677 -0.0006978581007211118 0.04272442420195761 4.687228475556626 -0.0077181278505689226 12.501076166477924 -8.208042512588413 6.887497963284098 0.023562117413578738 46.39078486085 0.03661433750430041 -4.347033583517786 -14.7774395836578 -3.8835018562505508 0.03349041914193523 -0.01827528166682138 -0.03341225402963721 -0.021596257009183568 -10.776541251438221 0.04182930006987584 
-0.02044483752439616 0.019282117886891402 0.03501329236452196 0.03239709077575819 -0.028954827002886676 -0.005921623316996949 4.244218373717407 2.2889886889964743 -2.0128132794515516 -0.6348550343723065 3.640000186342031 0.3202896410600195 -0.6089816119121266 -1.4935937295281356 0.9139184207050606 -0.5230276524157956 -0.21900843373301834 -0.25192968791785464 -0.015313814445674138 14.123120783969062 -1.1063996835244767 0.38846318873553015 0.5119701059382423 -2.666833558273212 0.7135668836648694 -15.279793871963625 -0.20991518094604447 -8.936399277782185 3.1396454639860556 -17.209248255387486 77.81750551163292 20.186865566176323 8.56320343154835 -3.296418161882561 0.0735581901197585 86.30797550026912 21.16655435780337 -0.5209508341573336 -5.129435817266589 4.551285992915124 -0.10257400748919407 -1.5856039203043382 0.007696510087535684 0.005772619007041327 -56.28042921261622 0.03378243054791223 0.03095311594039716 -56.246408894263354 -38.77185324423223 -0.02815766875894894 0.01911602512809601 0.02743690198369864 0.049427264261760036 -0.01176179927480866 0.009844686520739028 -0.015357952880557017 0.03714427817490817 -36.72449050994011 -0.017024395287161685 0.0049805285046378356 0.015919618505954955 0.042995981597335475 -0.003177485642022145 0.009438882710564611 -0.011753089843017237 0.04590953913218126 -19.740755516174946 0.017654730117501294 0.008875130766841889 -0.01280773837543811 0.025204027156664217 -0.00889859685953015 -0.008075424715452294 -0.042034968465718706 0.004931681270163544 24.079324787122186 -0.019850822058336944 0.01772673736943705 28.849228007324115 0.012508705089424506 -0.008515025645010214 28.86581252483572 0.046922281868976526 -0.0006047192204231439 10.166847924391435 2.3966520336260735 15.065122451136354 -73.87704999507032 26.89323717977593 -12.883446772541348 -14.96540179457626 2.767868628469021 -84.01227585517594 -23.626510783309772 -5.779726146052704 3.8424750894512103 -0.5063460907559654 0.07440777535503408 -8.100314427874775 0.026349804955857953 0.029391477616354498 44.55691197456377 0.010720589418800535 -0.0026048462117970765 44.58206262737277 12.45727563314963 0.03818240427587742 -0.03252235293364101 0.018433059685570775 -0.02016655229421444 -0.03747432201000703 0.021825476147151173 -0.021494539033973137 -0.02724184389332867 11.119123662861293 -0.0030730855516374936 0.001993174474148235 0.008315759968484325 0.00042704376190997364 0.03873656154573259 -0.01979270671079262 0.04445077448636051 -0.03431868169944592 4.755960118425547 -0.0064759390468774655 -0.037714826309868096 -0.015820639395630394 -0.031107752556052755 0.023241212083100208 -0.047258551285078776 -0.03365638164767989 0.04857357467122187 -5.5635925417363215 -0.016799789269390925 -0.03092459028928431 -6.737463467462937 0.034307481130367835 0.021629319192211647 -6.769460692256501 -0.011232325305188754 0.01494246203965603 0.007960466483312436 -0.011548565494854264 0.005044949930955981 8.021923234772547 3.4675241211375236 -19.19001925120301 -0.028833008432706374 10.392128271892986 0.006312182694993028 -5.6213468049945705 -15.6618820707641 3.173078948154516 0.004935198990000277 -0.020001701371602915 -0.0005634361309675227 0.00364145867794335 4.664543937841862 0.004878565884962329 12.44318350898445 -8.230592253414699 6.84793204514069 0.0076394793121014135 46.39419254389552 0.011906905477943751 -4.308875656124142 -14.73955539079518 -3.8286664331150773 0.0379979645243768 0.025626421788116024 0.04077918446383355 -0.023395103003814217 -10.732422344372178 0.045722403611569366 
